<?xml version="1.0" encoding="utf-8"?>
<!-- Generator: Adobe Illustrator 22.0.1, SVG Export Plug-In . SVG Version: 6.00 Build 0)  -->
<svg version="1.1" id="Layer_1" xmlns="http://www.w3.org/2000/svg" xmlns:xlink="http://www.w3.org/1999/xlink" x="0px" y="0px"
	 viewBox="0 0 560 288" style="enable-background:new 0 0 560 288;" xml:space="preserve">
<g>
	<path d="M-521.5,222.6c-2.6,17.7-4.1,36.6-4.3,38.2l12,0.2c0.3-12.7,2.5-48.4,9.7-61.5c7.4-11.4,17.3-32,21.2-52.9l2.2-12
		l-10.9,5.5c-22.5,11.5-50.8,22.2-57.1,19.7l-4.3,11.2c4.4,1.7,13.4,2.7,40.3-8.2c5.5-2.2,10.7-4.5,15-6.5
		c-4.3,14.2-11,28-16.7,36.8c-14.1,21.7-45.1,56.1-64.1,61.5c-32.8,9.3-58.7,6.4-76.9-8.6c-38.6-31.9-32.5-108.3-32.5-109.1
		c8-86.8,36.7-129.9,59.4-150.8c24.3-22.4,47-24.7,47.2-24.7l0.3,0c14.7-2,27.5-1.3,38.4,2c-30.7,52.5-56.2,99.1-58.4,103.2
		l10.5,5.7c0.6-1,27.2-49.8,59.1-104.3c4.6,2.6,8.7,5.7,12.3,9.5c12.4,13.1,17.5,31.9,19.2,49.4c-8.5,41.9-4.8,47-2.6,49.9
		c1.6,2.2,4.1,3.5,6.8,3.5h4.9l0.9-4.9c0.3-1.6,4.4-23.2,2.1-48.2c0.2-1.1,0.5-2.2,0.7-3.4c4.7-22.1,12.1-51.2,21.9-86.6
		c16.7-60.3,35-118.6,35.2-119.2l5.7-18l-15,11.5c-19.9,15.2-61.1,80.4-97,141c-13-4.5-28.4-5.6-46.1-3.2c-2.5,0.2-27,3.2-53.4,27.1
		C-651.6-8.9-664.8,9.9-675,32.9c-12.7,28.3-21,63-24.8,103.2c-0.3,3.4-6.7,83.4,36.8,119.4c13.5,11.2,30.2,16.7,49.9,16.7
		c11.6,0,24.3-1.9,37.9-5.8C-558.1,261.5-537,240.9-521.5,222.6z M-449.3-160.1c-7.1,23.3-18,59.8-28.2,96.9
		c-6.9,24.9-12.1,45.2-16.1,61.9c-3.6-10.6-8.9-20.8-16.8-29.2c-4.4-4.7-9.4-8.6-14.9-11.7C-498.9-86.9-469.9-133.8-449.3-160.1z"/>
	<path d="M-525.8,260.8L-525.8,260.8C-525.8,261-525.8,261-525.8,260.8z"/>
	<path d="M-441.7-22.7c-3.4,15.3,5.3,22,21.1,34.1c7.2,5.5,16.1,12.3,27.1,22.1c1.1,1.9,4.4,8.4,2.4,14.6c-1.7,5.3-7,9.6-15.8,12.8
		c-18.3,6.6-32.5,1.8-38.3-2.2l4.3-1.4l-3.8-11.4l-9,3c-3.2,1.1-5.3,3.4-5.9,6.4c-0.7,3.8,1.2,7.9,5.4,11.5
		c6.3,5.4,16.8,9.4,29.3,9.4c6.9,0,14.4-1.2,22.1-4c12.4-4.5,20.2-11.4,23.1-20.4c4.2-13-3.9-25.1-4.2-25.6l-0.4-0.6l-0.6-0.5
		c-11.6-10.3-20.9-17.5-28.4-23.2c-16.2-12.4-18.4-14.7-16.7-22c2.7-11.9,34.7-23.8,55.4-23.4l1.7,4.1l-1.7-4.1l4.1,9.6
		c14.2-6.1,13.2-11.9,12.9-13.8c-1.3-7.1-10.5-7.5-14.9-7.7C-393.6-56.4-436.8-44.4-441.7-22.7z"/>
	<path d="M-347.1,0.6c-4,6.4-7.9,14-11.7,22.6c-10.5,23.7-16.6,46.9-16.8,47.9l11.4,3.7c0.3-0.7,12.4-30.9,27.9-68.7
		c8-12.7,16.8-21.5,25.5-21.5c0,0,0,0,0,0c1.1,0,2.4,0.3,3.5,2.2c5.3,8.6,2.1,35.1-17.2,73.1c-1.3,2.5-4.2,8.3,0.2,12.2
		c4.4,3.9,10.1,2,25.8-8.5c10.1-6.8,12.4-9.3,13-11.7c4.1,6.1,9.8,10.9,17.2,14.2c5.6,2.5,11.5,2.5,17.8-0.1
		c2.8,1.6,7.1,2.4,13.3,0.4c10.8-3.4,25.2-14.1,37.4-24.6c-0.1,2.4,0.3,4.6,1,6.6c1.8,4.8,6.8,10.4,20,10.1
		c12.4-0.3,26.1-7.6,40.9-21.7c-2.2,4.4-4.5,8.9-6.7,13.5c-40.2,82-39,102.6-34.7,111l10.7-5.5c-1.7-3.3-4.3-20.4,34.8-100.2
		c17.7-36.2,36.9-70.6,43.1-81.5c1.3-2.2,2-3.5,2.1-3.7L-99-35.4c0,0.1-1.1,1.9-3,5.2c-14.7,25.2-49.8,76.1-77,76.8
		c-2.3,0.1-7.7-0.1-8.5-2.5c-1.5-4.5,3.3-13.5,8.7-21.5c2.2-2.2,4.3-4.3,6.2-6.3c9-9.4,9.3-11,9.6-12.5c0.5-2.7-0.6-5.3-2.9-6.6
		c-1.8-1.1-4.7-1.7-8.3,1.4c-3.2,2.7-8.9,9.3-14,16.4c-5.6,5.5-12.3,11.8-19.5,17.9c-8.5,7.2-15.3,12.2-20.6,15.7
		c4.1-4.6,8.3-10,12.6-16.3c13.8-20,23.9-41.2,24.3-42.1l2.6-5.6l-5.7-2.5c-0.5-0.2-11.9-5-25.6,1.6c-15.3,7.3-26.9,25.3-34.6,53.5
		c-2.1,7.6-2.8,13.6-2.2,18.3c-2.4,0.6-4.6,0.5-6.5-0.4c-8.4-3.7-13.6-9.8-15.9-18.5c-5.5-20.7,5.6-56.4,32-103.4
		c22.1-39.3,49.3-76.6,62.4-94.5c3.4-4.6,5.8-8,7.1-9.8c1-1.6,1.9-2.7,2.6-3.6l1.3,0.2l6,1c1.3-7.8-0.3-12.8-4.6-14.5
		c-6.7-2.7-12.1,5.4-15.3,10.2c-1.1,1.6-3.5,4.9-6.8,9.4c-13.2,18.1-40.7,55.7-63.1,95.7c-28.4,50.4-39.5,88.2-33.1,112.4
		c1.1,4,2.6,7.7,4.6,10.9l-11.1-0.5c0.1-2,1.1-3.2,1.1-3.2c-0.1,0.1-1.5,1.7-9,6.7c-1.6,1.1-3,2-4.2,2.8C-293.3,22-288.7-6-297-19.5
		c-3.1-5.1-8-7.9-13.8-7.9c0,0,0,0,0,0c-4.4,0-8.8,1.2-13.1,3.5c19.7-47.3,41.4-97.4,51.3-114.5c8-13.7,11-21.4,5.5-25.8
		c-3.5-2.8-8.9-3.5-23.8,10.4l8.2,8.8c0,0,0.1-0.1,0.1-0.1c-0.1,0.2-0.3,0.5-0.4,0.7C-295.5-123-324.8-53.6-347.1,0.6z M-243,40.4
		c8.3-30.4,19.8-41.7,27.9-45.7c3.5-1.7,6.7-2.3,9.3-2.4c-4.1,7.8-11.2,20.9-19.7,33.3c-6.8,9.9-13.3,17.6-19.2,22.7
		C-244.4,46.2-243.9,43.6-243,40.4z"/>
	<path d="M-407.2,186.3l-0.4-0.6c-0.4-0.8-11-19-27.9-18.4c-13.3,0.5-25.7,12.5-36.8,35.8c-9.8,20.6-10.7,36.5-2.8,47.4
		c8.6,11.7,25,13.6,35.2,13.6c4.9,0,8.4-0.5,8.8-0.5l0.6-0.1l0.5-0.2c0.4-0.1,10.8-3.8,18.5-15.5c6.9-10.3,13.2-29.2,4.3-60.8
		L-407.2,186.3z M-433.3,251.7c-3.9,0.4-24.4,2-32-8.4c-6.4-8.7-1.4-23.9,3.9-35.1c8.7-18.3,18.1-28.6,26.3-28.9c0.1,0,0.3,0,0.4,0
		c7.4,0,13.9,7.9,16.3,11.7C-405.6,237.7-429.4,250.1-433.3,251.7z"/>
	<path d="M-394.8,173.3v87.8h12V193c13.3-13.7,24.7-19.9,33-17.8c10.1,2.5,14.1,16.8,14.2,16.9l11.6-3.1
		c-0.2-0.9-5.8-21.2-22.8-25.5c-10.6-2.7-22.7,1.7-36,13v-3.3H-394.8z"/>
	<path d="M-213.9,172c-0.7-3.3-2.8-5.7-5.9-6.5c-7.6-2.2-19.4,6.5-50.5,38.4c4.3-7.3,8.7-14.6,12.6-21c8.2-13.4,10.2-21.3,6.7-26.5
		c-2-2.9-5.1-3.8-7.5-3.8c-13.1-1.9-28.4,9.8-46.5,35.7l4.8-12.9l-11.2-4.2l-33,87.7l11.1,4.6c0.1-0.3,12.3-27,28-52.8
		c24.4-39.8,38-45.8,43.5-46.2c-0.7,2.1-2.3,5.9-6.1,12.2c-6.5,10.7-15.5,25.8-22.7,38.6c-3.7,6.6-6.8,12.1-8.9,16
		c-1.2,2.2-2,3.9-2.6,5.1c-0.8,1.7-2.9,6.1,1,9.2c2.1,1.6,5.5,2.1,8.3-0.7c3.4-3.4,8-8.3,13.5-14.1c10.1-10.7,22.6-23.9,33.9-34.8
		c10.5-10.1,16.6-14.8,19.9-17c-1.4,15.9-17.1,54.9-28.2,71.7c-0.2,0.3-0.4,0.6-0.6,0.8c-1.2,1.7-4,5.8-0.7,9.6
		c3.3,3.8,7.7,1.9,12-0.1c3.5-1.5,8.9-4.2,17.2-8.2l1.6-0.8l-5.2-10.8l-1.6,0.8c-2,0.9-3.8,1.8-5.5,2.7
		C-225.3,222.7-210.9,186.4-213.9,172z"/>
	<path d="M-121.4,209.6c-31.2,29.6-39.3,25.9-39.6,25.7c-2-1-3-2.1-3.1-3.2c0-0.8,0.2-1.7,0.7-2.8c4.6-4.4,8.5-11.5,14-17.4
		l12.8-30.5l-19.6,23.4c-2.5,1.7-9.8,9.5-14.8,18c-25.7,24.6-34,21-34,21c-0.8-0.6-1.9-5.5,0.1-13.8c8.2-35.4,20-46.4,28.4-49.3
		c10.4-3.7,19.7,3.3,20.1,3.6l7.4-9.4c-0.6-0.5-14.7-11.4-31.4-5.6c-16.4,5.7-28.6,25.2-36.2,58c-1.5,6.4-3.9,21.8,6,27.1
		c1.7,0.9,3.7,1.5,6.2,1.5c6,0,15.1-3.8,30.4-16.9c1.4,2.4,3.7,4.7,7.5,6.7c10.7,5.6,27.7-3.2,53.5-27.6c0.2-0.1,0.3-0.3,0.5-0.4
		l-1.4,2.5c-7.2,11.8-11.8,21.4-12.3,22.3l10.7,5.5l11.9-21.6c10.1-16.6,24.3-35.7,37.2-41.3l0.7-0.3l0.6-0.5
		c10.2-7.9,24.6-14.6,29-11.8c0.8,0.5,4.6,4,0.6,22.2l-16.8,40.5l11.1,4.6l17.2-41.5l0.1-0.5c4.3-18.7,2.4-30.3-5.7-35.4
		c-13.4-8.6-36.4,7.5-42.2,12c-3.4,1.6-6.8,3.7-10.1,6.4l-7.4-5.1C-89.5,176-104.4,193.6-121.4,209.6z"/>
	<path d="M39.7,240.2c1.3,0.7,2.6,1,3.9,1c2.9,0,5.6-1.4,7.5-3.1c8.3-7.2,31.6-53.2,52.1-95.8c9.7-1.7,17.2-4.5,24.1-8.6
		c55.8-33.7,81.5-59.9,78.6-80.3c-2.1-15-18.5-19.5-19.2-19.6l-0.3-0.1c-30.5-6.2-65.1,6.6-102.9,38C55.9,94.7,37.2,118.9,36.4,120
		l9.5,7.3c0.5-0.6,31.3-40.4,70.5-64.7c-1,0.8-1.7,1.4-1.7,1.5l7.8,9.1c-7,15.2-15,32.4-23.3,49.7l-4.7-9.6
		c-17.7,8.6-25,15.3-24.2,22.5c0.5,5,4.8,7.9,8.4,8.7l0.8,0.2l0.9,0c3-0.1,5.9-0.3,8.6-0.5c-17.3,35.7-34,68.4-42.2,80.5
		c0.1-0.6,0.2-1.3,0.3-2.1l-11.9-1.8C34.1,228.1,33.7,236.9,39.7,240.2z M136.4,71.6c4.8-6.8,9.9-14.4,4.6-19.2
		c-0.7-0.6-1.4-1-2.1-1.3c14.7-5.9,29.9-8.6,44.8-5.6c1.2,0.4,9.4,3.1,10.3,9.8c0.9,6.7-4.3,26.9-72.9,68.3c-3.2,2-6.7,3.6-11.2,5
		C121.8,103.3,132,81.1,136.4,71.6z M85.4,132.3c2.3-1.8,6.2-4.3,12.9-7.6c-1.1,2.2-2.1,4.5-3.2,6.7C92.2,131.8,89,132.1,85.4,132.3
		z"/>
	<path d="M151.3,162.9c-34.9,56.7-42.7,66.2-44.5,67.7l7.7,9.2c1.9-1.6,7-5.8,43.1-64.3c0,0,0.1,0,0.1,0l0,0
		c0.7-1.2,1.4-2.3,2.2-3.5c-0.3,1.3-0.9,2.6-2,3.5c0.8-0.6,9-6.8,18.1-12.6c10.4-6.6,16-8.9,18.8-9.7c-0.2,0.8-0.6,1.9-1.2,3.3
		c-3.3,7.9-5.6,13.3-7.3,17.2c-5,11.7-5.3,12.4-12.8,34.2c-1.2,3.4-4.2,12.3,2.1,16.1c1.3,0.8,2.7,1.2,4.2,1.2
		c5,0,11.8-4.4,22.9-14.6c1.9-1.8,3.8-3.5,5.5-5.2c0.5,4.8,2.6,8.9,6,12c4.4,4,10.8,6,19.2,6c4.4,0,9.4-0.6,15-1.7
		c33.3-6.8,45.1-32.6,42.7-48.8c-1.6-11.3-16-28.6-29.9-32.3c1.2-0.8,2.4-1.6,3.4-2.2c0.9-0.6,1.7-1,2.4-1.4l4.2,2l-4.2-2l9.6,4.6
		c1.5-3.2,4.6-11.2-0.5-15.8c-5.6-5.1-14.1,0.1-17.8,2.3c-1.4,0.9-3,1.9-4.6,3c-18.9,13.1-36.1,36.5-42.8,56.9l-1.2-1.1
		c-7.9,8.4-17.6,17.6-24.1,22.6c6.5-18.9,6.9-19.8,11.7-30.9c1.7-3.9,4-9.4,7.4-17.3c4-9.4,3.3-15.8-2-18.9
		c-4.2-2.5-10.7-3.1-29.7,8.5c27.2-44.8,54.1-90.3,54.4-90.8l0.3-0.5l0.2-0.6c2.5-7.2,4.1-12.4,4.9-16.1c0.6-2.8,2-9.3-3.4-11.7
		c-6.3-2.9-10.9,4.4-15.8,12c-3.4,5.3-6.5,10.7-6.6,10.9l7.5,4.2C205.9,72.4,177.1,121,151.3,162.9z M220.2,201.2
		c1.7-16.8,18.2-45.1,40.3-60.5l-2.7,11c8.9,2.2,20.4,15.3,21.5,22.5c1.6,11.2-7.8,30.2-33.3,35.4c-15.7,3.2-21.6,0.5-23.7-1.4
		C220.6,206.7,219.8,204.3,220.2,201.2z"/>
	<path d="M293,159.3c0.2-0.1,10-3.2,23.1-5.7c-20.8,47.9-39.2,88.5-43.7,93.3c0,0,0.3-0.3,0.8-0.6l5.8,10.5
		c2.9-1.6,7.3-4.1,51-105.3c8.8-0.9,17.9-1.1,26.1,0.3l2-11.8c-7.3-1.2-15.1-1.4-22.7-0.9c20.4-47.7,39.1-92.7,39.3-93.2l-11.1-4.6
		c-12,29.1-27.3,65.3-41.9,99.2c-17.4,2.5-31.5,7.1-32.5,7.4L293,159.3z"/>
	<path d="M346,205c-2.4,10.3-0.3,20.1,6.3,29.2c8.2,11.2,16.6,14.4,23.4,14.4c2.1,0,4.1-0.3,5.8-0.8c11.5-3,21.4-14.6,28.4-26.9
		c5.4,8.4,16.5,12.5,24.1,12.7c10.8,0.4,30-6.6,45.6-15.3c-17.1,41.9-49.6,117.7-101,171.1c-22.3,23.3-32.5,23.8-35.8,23
		c-3.1-0.8-5.4-4-7-9.5c-6.7-23.9,6.1-75.8,19.2-89.1l-8.6-8.4c-17.3,17.6-29.7,74.1-22.1,100.8c3.5,12.4,10.4,16.6,15.6,17.9
		c1.5,0.4,3.1,0.6,4.8,0.6c11.2,0,25.2-8.9,42.6-26.9c56.4-58.7,90.4-142.6,106.7-183c1.3-3.2,2.5-6.3,3.7-9.1
		c0.8-0.7,1.5-1.5,2.1-2.2c-15.3,38.1-13.5,41.5-11.9,44.5l10.5-5.7c0.4,0.8,0.5,1.4,0.5,1.4c-0.3-5.5,10.9-34.2,24.5-65.7
		c6.6-6.3,23.6-19.4,38.5-18.6c6.8,0.4,12.6,3.6,17.5,9.9c1.6,2,3.8,4,6.5,5.8c-11.4,9.5-22.6,20.1-27,27.4
		c-3.8,6.3-6.9,19,0.6,26.2c8.4,8,24.7,4.3,49.7-11.5c5.2,7,17,6.4,21.1,6.2c7.1-0.4,14-2.7,20.6-6.4c-6.1,11.6-12.1,23.4-17.8,34.8
		c-7.2,12.3-14,24.4-20.1,35.6c-20,36.6-20,41-20,43.1c0,3.6,2.4,5.7,4.8,6.3c0.5,0.1,1,0.2,1.5,0.2c3.8,0,5.9-3.6,7.3-5.9
		c1.2-2,2.7-4.8,4.8-8.8c3.8-7.4,9-17.9,15-30c5.2-10.6,11.1-22.6,17.5-35.1c6.6-11.3,13.8-23.3,21.3-35.6
		c12.8-20.7,24.3-40.1,32.2-53.6c6.6-10.2,10.5-18,11-18.9l-2.2-1.2c9-11.7,12.9-13.2,14-13.4c4.2,2.7,6.7,6.6,7.6,12.1
		c3.1,18-11.1,44.9-19.5,55.3c-5.2,6.5-20.4,19-30,19c-0.1,0-0.2,0-0.3,0c-2.3-0.1-3.9-0.9-5.2-2.7l-9.8,7c3.5,4.9,8.6,7.6,14.6,7.7
		c0.2,0,0.4,0,0.6,0c15.4,0,33.4-16,39.3-23.5c8.9-11.1,26-41.6,21.9-64.8c-1.6-9-6.1-15.9-13.5-20.4c-1.9-1.2-5.1-2.3-9.4-1.1
		c-7.5,2.2-19.9,11.4-49.5,64.1c-0.5,0.8-0.9,1.6-1.4,2.5c-11.2,11.9-23.8,21.3-36.1,21.9c-8.4,0.4-10.6-1.1-10.8-1.4
		c-0.1-0.6,0.1-1.4,0.5-2.5l14.3-17.7l-8.7-8.2c-3.4,3-11.5,10.9-15.6,19.2l-3.4,4.3c-31.6,20.6-38.1,15-38.1,14.9
		c-1.6-1.5-0.9-7.6,1.4-11.4c3.4-5.7,15-16.9,29.1-28.2c4.9,1.3,10.3,1.8,15.9,1.2c13.7-1.5,24.8-9.5,31.3-22.7
		c4.8-9.8,0.9-13.8-1.9-15.3c-2.9-1.6-9.6-5.2-44.3,20.9c-1.1,0.8-2.2,1.6-3.3,2.5c-3.2-1.4-5.8-3.2-7.2-5.1
		c-7.1-9-15.9-13.8-26.3-14.4c-10.5-0.6-20.9,3.5-29.4,8.4c1.1-2.5,2.3-5,3.4-7.5l-10.9-5c-0.1,0.2-10.7,23.4-20.6,47.1
		c-0.1,0.3-0.3,0.6-0.4,1c0-0.2,0-0.5-0.1-0.7c-0.6-2.7-2.2-4.2-3.8-4.9c3.5-9.2,7.1-23.6-0.8-31.2c-8.1-7.8-23.6-4.9-48.7,9
		c-12.8,7.1-22.8,14-30.1,20.8c-0.8-8.8-4-20.5-9.7-27.1c-4-4.7-8.2-5.8-11-5.9l-0.1,3.3l-1.9-3.6C396.5,152,352.9,175.2,346,205z
		 M633.1,156.8c-5.8,9.4-14,12.2-20,12.9c-0.2,0-0.4,0-0.5,0.1C621.5,163.3,628.4,159.1,633.1,156.8z M457.1,174.1
		c17.6-9.8,26.6-11.8,30.9-11.8c2.7,0,3.6,0.8,3.7,0.9c2.9,2.8-0.2,15.4-4.9,24.7l4.6,2.3c-0.7,1.3-1.4,2.7-2,4.1
		c-0.6,1.2-1.2,2.6-1.8,4.2c-3.7,3.1-9.7,7.2-18.3,11.6c-13.6,6.9-27.9,11.6-34.9,11.4c-5.5-0.2-14.1-4-15.5-9.8
		C418.1,208.4,418.4,195.6,457.1,174.1z M400.6,163.6c0.5,0.3,1.1,0.8,1.7,1.5c4.7,5.5,7.6,19.2,6.9,24.8
		c-1.4,11.5-16.1,42.4-30.7,46.3c-2,0.5-8.3,2.2-16.5-9.1c-4.5-6.2-5.9-12.5-4.3-19.4C362.4,187.5,390.8,169.3,400.6,163.6z"/>
	<path d="M937.8,105.8c-1.6-1.9-4.1-2.7-6.4-2c-3.9,1.1-4.6,4.8-5.1,7c-0.3,1.6-0.7,3.9-1.1,6.7c-1,6.4-2.1,12.7-3.3,18.9
		c-8,25.8-23.5,63.5-39.8,76.3c-6.2,4.9-9.7,3.6-10.9,3.2c-3.8-1.4-6.6-4.8-8.7-10.4c-4.5-12.3-3.6-31-1.5-45.8
		c4-7.4,6.5-14.5,7-20.7c0.2-3.2,0.7-10-5.3-11c-6.4-1.1-8.3,6.2-9.8,11.6c-1.2,4.4-2.4,10-3.4,16.2c-9.1,15.9-25.8,34.1-38.8,42.1
		c-6,3.6-8.9,3.8-9.4,3.6c-0.6-0.6-2.3-3.1-1-12.5c1-7.3,3.4-16.1,5.6-23.8c4.7-16.8,7.7-27.9-0.2-31.8c-5.2-2.6-12.2-0.6-30.2,17
		c3.7-9.1,7.6-19.4,12-30.8c18.2-48.2,34-95.4,34.2-95.8l-11.4-3.8c-0.2,0.5-15.9,47.4-34,95.4c-9.8,25.9-17.7,45.3-24,59.8
		c-0.4,0.5-0.7,0.8-0.8,0.9l0.3,0.2c-14.9,34-21,40.3-22.9,41.5l6.3,10.2c3-1.8,9.5-5.9,27.3-46.3c12.7-14.5,27.9-29.6,35.7-35
		c-0.8,4.3-2.5,10.5-3.9,15.5c-5.3,19.1-10.8,38.8-1.5,48c2.7,2.7,7.8,5.2,16.5,2c11.2-4.2,26-17,38-31.8c0,1.8,0,3.6,0,5.4
		c0.5,22.9,7.1,36.9,19.6,41.6c10.8,4.1,22-1.4,33.4-16.4c-55.3,140.8-183.7,232.9-370.2,263c-204.5,33-455.9,23.6-630.8,10
		c-187.9-14.7-330.1-37.3-334.2-37.9c-1.6-0.3-31-5.9-60.2-15.4c-51.5-16.7-57.4-30.3-57.6-35.4c-0.2-7.1,9.8-26.1,106.2-49.5
		c130.9-31.7,246.6-16.3,320.7,2.1c80.4,20,130.4,48,130.9,48.3l5.9-10.4c-2.1-1.2-51.6-28.9-133.5-49.3c-48-12-97.1-18.9-146-20.6
		c-61.1-2.1-121.9,4.1-180.9,18.4c-79.3,19.2-115.9,38.7-115.3,61.4c0.5,17.1,22,32.3,65.9,46.5c30.6,9.9,60.5,15.5,61.8,15.8l0.1,0
		c1.4,0.2,144.9,23.2,335.1,38.1C6,504,108.1,508.3,202.1,508.3c3.5,0,7.1,0,10.6,0c121.2-0.4,228.7-8.1,319.5-22.7
		c82.1-13.2,153.6-38.2,212.6-74.1c48.7-29.7,89.3-67.1,120.9-111.2c45.1-63.2,61.5-126.1,68.2-161.2c1.8-5.8,3.2-11.2,4.2-15.8
		C940.5,111.8,939.9,108.3,937.8,105.8z"/>
</g>
</svg>
